<svg width="67" height="19" viewBox="0 0 67 19" fill="none" xmlns="http://www.w3.org/2000/svg">
<rect width="67" height="19" rx="9.5" fill="#E5E5E5"/>
<path d="M9.27273 8.21023H11.3182V13H13.5341V8.21023H15.6136V6.45455H9.27273V8.21023ZM18.1353 13.1023C18.9876 13.1023 19.631 12.8125 20.0273 12.0795H20.0785V13H22.2773V8.51705C22.2773 7.30682 21.131 6.36932 19.2603 6.36932C17.3043 6.36932 16.3413 7.39205 16.2603 8.58523H18.4251C18.4805 8.1804 18.7788 7.98864 19.2262 7.98864C19.6353 7.98864 19.9251 8.17614 19.9251 8.51705V8.53409C19.9251 8.91335 19.5075 9.03267 18.408 9.11364C17.0572 9.21165 16.0046 9.7571 16.0046 11.1932C16.0046 12.4972 16.8825 13.1023 18.1353 13.1023ZM18.9023 11.6193C18.5018 11.6193 18.2205 11.4233 18.2205 11.0568C18.2205 10.7202 18.4592 10.4602 19.0046 10.375C19.3796 10.3153 19.695 10.2386 19.9421 10.1364V10.6818C19.9421 11.2784 19.435 11.6193 18.9023 11.6193ZM23.4013 13H25.7536V10.9716H26.282L27.5433 13H30.2706L28.157 9.76136L30.2536 6.45455H27.5604L26.1626 8.78977H25.7536V6.45455H23.4013V13ZM30.4954 8.21023H32.5408V13H34.7567V8.21023H36.8363V6.45455H30.4954V8.21023ZM39.9258 10V6.45455H37.7099V13H39.9258L41.7496 9.4375V13H43.9656V6.45455H41.7496L39.9258 10ZM45.163 13H47.5153V10.9716H48.0437L49.305 13H52.0323L49.9187 9.76136L52.0153 6.45455H49.3221L47.9244 8.78977H47.5153V6.45455H45.163V13ZM54.4048 13.1023C55.2571 13.1023 55.9006 12.8125 56.2969 12.0795H56.348V13H58.5469V8.51705C58.5469 7.30682 57.4006 6.36932 55.5298 6.36932C53.5739 6.36932 52.6108 7.39205 52.5298 8.58523H54.6946C54.75 8.1804 55.0483 7.98864 55.4957 7.98864C55.9048 7.98864 56.1946 8.17614 56.1946 8.51705V8.53409C56.1946 8.91335 55.777 9.03267 54.6776 9.11364C53.3267 9.21165 52.2741 9.7571 52.2741 11.1932C52.2741 12.4972 53.152 13.1023 54.4048 13.1023ZM55.1719 11.6193C54.7713 11.6193 54.4901 11.4233 54.4901 11.0568C54.4901 10.7202 54.7287 10.4602 55.2741 10.375C55.6491 10.3153 55.9645 10.2386 56.2116 10.1364V10.6818C56.2116 11.2784 55.7045 11.6193 55.1719 11.6193Z" fill="black"/>
</svg>
